<svg xmlns="http://www.w3.org/2000/svg" xmlns:xlink="http://www.w3.org/1999/xlink" width="500" zoomAndPan="magnify" viewBox="0 0 375 374.999991" height="500" preserveAspectRatio="xMidYMid meet" version="1.0"><defs><g/><clipPath id="a75361f6b1"><path d="M 43.523438 37.5 L 331.476562 37.5 L 331.476562 325.457031 L 43.523438 325.457031 Z M 43.523438 37.5 " clip-rule="nonzero"/></clipPath><clipPath id="e683bf460c"><path d="M 187.5 37.5 C 107.984375 37.5 43.523438 101.960938 43.523438 181.476562 C 43.523438 260.996094 107.984375 325.457031 187.5 325.457031 C 267.015625 325.457031 331.476562 260.996094 331.476562 181.476562 C 331.476562 101.960938 267.015625 37.5 187.5 37.5 Z M 187.5 37.5 " clip-rule="nonzero"/></clipPath><clipPath id="0b699ce3fb"><path d="M 0.523438 0.5 L 288.476562 0.5 L 288.476562 288.457031 L 0.523438 288.457031 Z M 0.523438 0.5 " clip-rule="nonzero"/></clipPath><clipPath id="d692ee9615"><path d="M 144.5 0.5 C 64.984375 0.5 0.523438 64.960938 0.523438 144.476562 C 0.523438 223.996094 64.984375 288.457031 144.5 288.457031 C 224.015625 288.457031 288.476562 223.996094 288.476562 144.476562 C 288.476562 64.960938 224.015625 0.5 144.5 0.5 Z M 144.5 0.5 " clip-rule="nonzero"/></clipPath><clipPath id="86c6778ce8"><rect x="0" width="289" y="0" height="289"/></clipPath><clipPath id="a03d6569de"><rect x="0" width="160" y="0" height="22"/></clipPath></defs><g clip-path="url(#a75361f6b1)"><g clip-path="url(#e683bf460c)"><g transform="matrix(1, 0, 0, 1, 43, 37)"><g clip-path="url(#86c6778ce8)"><g clip-path="url(#0b699ce3fb)"><g clip-path="url(#d692ee9615)"><path fill="#c98a94" d="M 0.523438 0.5 L 288.476562 0.5 L 288.476562 288.457031 L 0.523438 288.457031 Z M 0.523438 0.5 " fill-opacity="1" fill-rule="nonzero"/></g></g></g></g></g></g><g transform="matrix(1, 0, 0, 1, 113, 237)"><g clip-path="url(#a03d6569de)"><g fill="#bd9c68" fill-opacity="0.4"><g transform="translate(1.307595, 15.908205)"><g><path d="M 1.585938 0 C 1.472656 0 1.417969 -0.0546875 1.417969 -0.167969 L 1.417969 -10.753906 C 1.417969 -10.867188 1.472656 -10.921875 1.585938 -10.921875 L 2.667969 -10.921875 C 2.777344 -10.921875 2.835938 -10.867188 2.835938 -10.753906 L 2.835938 -6.253906 L 8.1875 -6.253906 L 8.1875 -10.753906 C 8.1875 -10.867188 8.242188 -10.921875 8.355469 -10.921875 L 9.4375 -10.921875 C 9.550781 -10.921875 9.605469 -10.867188 9.605469 -10.753906 L 9.605469 -0.167969 C 9.605469 -0.0546875 9.550781 0 9.4375 0 L 8.355469 0 C 8.242188 0 8.1875 -0.0546875 8.1875 -0.167969 L 8.1875 -5.019531 L 2.835938 -5.019531 L 2.835938 -0.167969 C 2.835938 -0.0546875 2.777344 0 2.667969 0 Z M 1.585938 0 "/></g></g></g><g fill="#bd9c68" fill-opacity="0.4"><g transform="translate(23.027703, 15.908205)"><g><path d="M 1.585938 0 C 1.472656 0 1.417969 -0.0546875 1.417969 -0.167969 L 1.417969 -10.753906 C 1.417969 -10.867188 1.472656 -10.921875 1.585938 -10.921875 L 7.519531 -10.921875 C 7.632812 -10.921875 7.6875 -10.867188 7.6875 -10.753906 L 7.6875 -9.804688 C 7.6875 -9.695312 7.632812 -9.636719 7.519531 -9.636719 L 2.835938 -9.636719 L 2.835938 -6.171875 L 7.121094 -6.171875 C 7.230469 -6.171875 7.289062 -6.113281 7.289062 -6.003906 L 7.289062 -5.101562 C 7.289062 -4.992188 7.230469 -4.9375 7.121094 -4.9375 L 2.835938 -4.9375 L 2.835938 -1.285156 L 7.519531 -1.285156 C 7.632812 -1.285156 7.6875 -1.226562 7.6875 -1.117188 L 7.6875 -0.167969 C 7.6875 -0.0546875 7.632812 0 7.519531 0 Z M 1.585938 0 "/></g></g></g><g fill="#bd9c68" fill-opacity="0.4"><g transform="translate(42.615519, 15.908205)"><g><path d="M 3.917969 0 C 3.808594 0 3.753906 -0.0546875 3.753906 -0.167969 L 3.753906 -3.753906 L 0.183594 -10.722656 C 0.160156 -10.777344 0.160156 -10.824219 0.183594 -10.863281 C 0.207031 -10.902344 0.246094 -10.921875 0.300781 -10.921875 L 1.566406 -10.921875 C 1.667969 -10.921875 1.734375 -10.882812 1.769531 -10.804688 L 3.601562 -7.039062 C 3.746094 -6.75 3.890625 -6.449219 4.035156 -6.144531 C 4.179688 -5.839844 4.324219 -5.542969 4.46875 -5.253906 L 4.484375 -5.253906 C 4.640625 -5.5625 4.792969 -5.871094 4.9375 -6.171875 C 5.082031 -6.46875 5.226562 -6.777344 5.371094 -7.085938 L 7.1875 -10.804688 C 7.21875 -10.882812 7.289062 -10.921875 7.386719 -10.921875 L 8.621094 -10.921875 C 8.675781 -10.921875 8.714844 -10.902344 8.738281 -10.863281 C 8.761719 -10.824219 8.761719 -10.777344 8.738281 -10.722656 L 5.167969 -3.753906 L 5.167969 -0.167969 C 5.167969 -0.0546875 5.113281 0 5.003906 0 Z M 3.917969 0 "/></g></g></g><g fill="#bd9c68" fill-opacity="0.4"><g transform="translate(62.236664, 15.908205)"><g><path d="M 5.101562 0.199219 C 4.292969 0.199219 3.597656 0.0429688 3.019531 -0.265625 C 2.441406 -0.578125 1.996094 -1.027344 1.683594 -1.609375 C 1.371094 -2.191406 1.21875 -2.894531 1.21875 -3.71875 L 1.21875 -7.203125 C 1.21875 -8.425781 1.589844 -9.386719 2.335938 -10.082031 C 3.078125 -10.773438 4.101562 -11.121094 5.402344 -11.121094 C 6.28125 -11.121094 7.039062 -10.976562 7.679688 -10.679688 C 8.320312 -10.386719 8.796875 -9.972656 9.113281 -9.4375 C 9.429688 -8.90625 9.53125 -8.269531 9.421875 -7.539062 C 9.410156 -7.425781 9.347656 -7.371094 9.238281 -7.371094 L 8.15625 -7.371094 C 8.03125 -7.371094 7.980469 -7.425781 8.003906 -7.539062 C 8.039062 -8.046875 7.960938 -8.476562 7.769531 -8.820312 C 7.582031 -9.167969 7.292969 -9.425781 6.902344 -9.605469 C 6.515625 -9.78125 6.027344 -9.871094 5.4375 -9.871094 C 4.511719 -9.871094 3.816406 -9.648438 3.34375 -9.203125 C 2.871094 -8.761719 2.632812 -8.097656 2.632812 -7.21875 L 2.632812 -3.703125 C 2.632812 -2.8125 2.855469 -2.148438 3.300781 -1.710938 C 3.746094 -1.269531 4.417969 -1.050781 5.320312 -1.050781 C 6.242188 -1.050781 6.945312 -1.277344 7.429688 -1.734375 C 7.914062 -2.191406 8.15625 -2.847656 8.15625 -3.703125 L 8.15625 -4.335938 L 5.554688 -4.335938 C 5.441406 -4.335938 5.386719 -4.390625 5.386719 -4.503906 L 5.386719 -5.402344 C 5.386719 -5.515625 5.441406 -5.570312 5.554688 -5.570312 L 9.304688 -5.570312 C 9.417969 -5.570312 9.472656 -5.515625 9.472656 -5.402344 L 9.472656 -2.117188 C 9.472656 -1.773438 9.480469 -1.441406 9.496094 -1.125 C 9.511719 -0.808594 9.542969 -0.496094 9.589844 -0.183594 C 9.601562 -0.128906 9.589844 -0.0820312 9.5625 -0.0507812 C 9.535156 -0.015625 9.492188 0 9.4375 0 L 8.554688 0 C 8.511719 0 8.472656 -0.0117188 8.4375 -0.0351562 C 8.40625 -0.0546875 8.382812 -0.0898438 8.371094 -0.132812 C 8.347656 -0.277344 8.328125 -0.4375 8.304688 -0.617188 C 8.28125 -0.792969 8.265625 -0.984375 8.253906 -1.183594 L 8.238281 -1.183594 C 8.027344 -0.871094 7.761719 -0.613281 7.445312 -0.410156 C 7.128906 -0.203125 6.773438 -0.0507812 6.378906 0.0507812 C 5.984375 0.148438 5.558594 0.199219 5.101562 0.199219 Z M 5.101562 0.199219 "/></g></g></g><g fill="#bd9c68" fill-opacity="0.4"><g transform="translate(83.823498, 15.908205)"><g><path d="M 1.585938 0 C 1.472656 0 1.417969 -0.0546875 1.417969 -0.167969 L 1.417969 -10.753906 C 1.417969 -10.867188 1.472656 -10.921875 1.585938 -10.921875 L 2.667969 -10.921875 C 2.777344 -10.921875 2.835938 -10.867188 2.835938 -10.753906 L 2.835938 -0.167969 C 2.835938 -0.0546875 2.777344 0 2.667969 0 Z M 1.585938 0 "/></g></g></g><g fill="#bd9c68" fill-opacity="0.4"><g transform="translate(98.78024, 15.908205)"><g><path d="M 1.585938 0 C 1.472656 0 1.417969 -0.0546875 1.417969 -0.167969 L 1.417969 -10.753906 C 1.417969 -10.867188 1.472656 -10.921875 1.585938 -10.921875 L 4.800781 -10.921875 C 6.125 -10.921875 7.105469 -10.671875 7.746094 -10.171875 C 8.386719 -9.671875 8.703125 -8.921875 8.703125 -7.921875 C 8.703125 -7.121094 8.511719 -6.457031 8.128906 -5.929688 C 7.746094 -5.398438 7.203125 -5.035156 6.503906 -4.835938 L 6.503906 -4.820312 L 9.289062 -0.199219 C 9.320312 -0.144531 9.328125 -0.0976562 9.304688 -0.0585938 C 9.28125 -0.0195312 9.238281 0 9.171875 0 L 7.886719 0 C 7.796875 0 7.730469 -0.0390625 7.6875 -0.117188 L 4.96875 -4.652344 L 2.835938 -4.652344 L 2.835938 -0.167969 C 2.835938 -0.0546875 2.777344 0 2.667969 0 Z M 2.835938 -5.785156 L 4.652344 -5.785156 C 5.585938 -5.785156 6.257812 -5.949219 6.671875 -6.269531 C 7.082031 -6.59375 7.289062 -7.109375 7.289062 -7.820312 C 7.289062 -8.511719 7.09375 -9 6.710938 -9.289062 C 6.328125 -9.578125 5.675781 -9.722656 4.753906 -9.722656 L 2.835938 -9.722656 Z M 2.835938 -5.785156 "/></g></g></g><g fill="#bd9c68" fill-opacity="0.4"><g transform="translate(119.550811, 15.908205)"><g><path d="M 1.585938 0 C 1.472656 0 1.417969 -0.0546875 1.417969 -0.167969 L 1.417969 -10.753906 C 1.417969 -10.867188 1.472656 -10.921875 1.585938 -10.921875 L 2.667969 -10.921875 C 2.777344 -10.921875 2.835938 -10.867188 2.835938 -10.753906 L 2.835938 -1.285156 L 7.4375 -1.285156 C 7.546875 -1.285156 7.605469 -1.226562 7.605469 -1.117188 L 7.605469 -0.167969 C 7.605469 -0.0546875 7.546875 0 7.4375 0 Z M 1.585938 0 "/></g></g></g><g fill="#bd9c68" fill-opacity="0.4"><g transform="translate(138.18909, 15.908205)"><g><path d="M 4.636719 0.199219 C 3.300781 0.199219 2.324219 -0.0859375 1.699219 -0.660156 C 1.078125 -1.230469 0.800781 -1.980469 0.867188 -2.902344 C 0.878906 -3.101562 0.945312 -3.203125 1.066406 -3.203125 L 2.117188 -3.203125 C 2.25 -3.203125 2.316406 -3.113281 2.316406 -2.933594 C 2.316406 -2.257812 2.519531 -1.769531 2.917969 -1.476562 C 3.320312 -1.179688 3.929688 -1.035156 4.753906 -1.035156 C 5.542969 -1.035156 6.140625 -1.175781 6.546875 -1.460938 C 6.949219 -1.742188 7.152344 -2.171875 7.152344 -2.75 C 7.152344 -3.039062 7.105469 -3.289062 7.011719 -3.492188 C 6.917969 -3.699219 6.757812 -3.878906 6.535156 -4.035156 C 6.316406 -4.191406 6.015625 -4.347656 5.636719 -4.503906 L 3.183594 -5.519531 C 2.671875 -5.730469 2.257812 -5.96875 1.941406 -6.226562 C 1.625 -6.488281 1.398438 -6.789062 1.257812 -7.128906 C 1.121094 -7.46875 1.050781 -7.855469 1.050781 -8.289062 C 1.0625 -9.210938 1.371094 -9.910156 1.976562 -10.390625 C 2.582031 -10.867188 3.464844 -11.105469 4.621094 -11.105469 C 5.410156 -11.105469 6.09375 -10.988281 6.671875 -10.753906 C 7.25 -10.523438 7.6875 -10.183594 7.988281 -9.738281 C 8.289062 -9.292969 8.410156 -8.75 8.355469 -8.105469 C 8.332031 -7.894531 8.269531 -7.789062 8.171875 -7.789062 L 7.105469 -7.789062 C 7.046875 -7.789062 7.007812 -7.808594 6.980469 -7.855469 C 6.949219 -7.898438 6.941406 -7.980469 6.953125 -8.105469 C 7 -8.671875 6.804688 -9.109375 6.378906 -9.414062 C 5.949219 -9.71875 5.347656 -9.871094 4.570312 -9.871094 C 3.878906 -9.871094 3.359375 -9.75 3.011719 -9.503906 C 2.660156 -9.261719 2.480469 -8.882812 2.46875 -8.371094 C 2.46875 -8.105469 2.515625 -7.871094 2.609375 -7.671875 C 2.703125 -7.46875 2.867188 -7.289062 3.09375 -7.121094 C 3.320312 -6.953125 3.636719 -6.785156 4.035156 -6.621094 L 6.453125 -5.601562 C 6.964844 -5.390625 7.375 -5.160156 7.6875 -4.902344 C 8 -4.648438 8.222656 -4.347656 8.363281 -4.011719 C 8.5 -3.671875 8.570312 -3.261719 8.570312 -2.785156 C 8.570312 -1.851562 8.253906 -1.121094 7.621094 -0.59375 C 6.988281 -0.0625 5.992188 0.199219 4.636719 0.199219 Z M 4.636719 0.199219 "/></g></g></g><g fill="#fffdf5" fill-opacity="1"><g transform="translate(1.307595, 15.908205)"><g><path d="M 1.585938 0 C 1.472656 0 1.417969 -0.0546875 1.417969 -0.167969 L 1.417969 -10.753906 C 1.417969 -10.867188 1.472656 -10.921875 1.585938 -10.921875 L 2.667969 -10.921875 C 2.777344 -10.921875 2.835938 -10.867188 2.835938 -10.753906 L 2.835938 -6.253906 L 8.1875 -6.253906 L 8.1875 -10.753906 C 8.1875 -10.867188 8.242188 -10.921875 8.355469 -10.921875 L 9.4375 -10.921875 C 9.550781 -10.921875 9.605469 -10.867188 9.605469 -10.753906 L 9.605469 -0.167969 C 9.605469 -0.0546875 9.550781 0 9.4375 0 L 8.355469 0 C 8.242188 0 8.1875 -0.0546875 8.1875 -0.167969 L 8.1875 -5.019531 L 2.835938 -5.019531 L 2.835938 -0.167969 C 2.835938 -0.0546875 2.777344 0 2.667969 0 Z M 1.585938 0 "/></g></g></g><g fill="#fffdf5" fill-opacity="1"><g transform="translate(23.027703, 15.908205)"><g><path d="M 1.585938 0 C 1.472656 0 1.417969 -0.0546875 1.417969 -0.167969 L 1.417969 -10.753906 C 1.417969 -10.867188 1.472656 -10.921875 1.585938 -10.921875 L 7.519531 -10.921875 C 7.632812 -10.921875 7.6875 -10.867188 7.6875 -10.753906 L 7.6875 -9.804688 C 7.6875 -9.695312 7.632812 -9.636719 7.519531 -9.636719 L 2.835938 -9.636719 L 2.835938 -6.171875 L 7.121094 -6.171875 C 7.230469 -6.171875 7.289062 -6.113281 7.289062 -6.003906 L 7.289062 -5.101562 C 7.289062 -4.992188 7.230469 -4.9375 7.121094 -4.9375 L 2.835938 -4.9375 L 2.835938 -1.285156 L 7.519531 -1.285156 C 7.632812 -1.285156 7.6875 -1.226562 7.6875 -1.117188 L 7.6875 -0.167969 C 7.6875 -0.0546875 7.632812 0 7.519531 0 Z M 1.585938 0 "/></g></g></g><g fill="#fffdf5" fill-opacity="1"><g transform="translate(42.615519, 15.908205)"><g><path d="M 3.917969 0 C 3.808594 0 3.753906 -0.0546875 3.753906 -0.167969 L 3.753906 -3.753906 L 0.183594 -10.722656 C 0.160156 -10.777344 0.160156 -10.824219 0.183594 -10.863281 C 0.207031 -10.902344 0.246094 -10.921875 0.300781 -10.921875 L 1.566406 -10.921875 C 1.667969 -10.921875 1.734375 -10.882812 1.769531 -10.804688 L 3.601562 -7.039062 C 3.746094 -6.75 3.890625 -6.449219 4.035156 -6.144531 C 4.179688 -5.839844 4.324219 -5.542969 4.46875 -5.253906 L 4.484375 -5.253906 C 4.640625 -5.5625 4.792969 -5.871094 4.9375 -6.171875 C 5.082031 -6.46875 5.226562 -6.777344 5.371094 -7.085938 L 7.1875 -10.804688 C 7.21875 -10.882812 7.289062 -10.921875 7.386719 -10.921875 L 8.621094 -10.921875 C 8.675781 -10.921875 8.714844 -10.902344 8.738281 -10.863281 C 8.761719 -10.824219 8.761719 -10.777344 8.738281 -10.722656 L 5.167969 -3.753906 L 5.167969 -0.167969 C 5.167969 -0.0546875 5.113281 0 5.003906 0 Z M 3.917969 0 "/></g></g></g><g fill="#fffdf5" fill-opacity="1"><g transform="translate(62.236664, 15.908205)"><g><path d="M 5.101562 0.199219 C 4.292969 0.199219 3.597656 0.0429688 3.019531 -0.265625 C 2.441406 -0.578125 1.996094 -1.027344 1.683594 -1.609375 C 1.371094 -2.191406 1.21875 -2.894531 1.21875 -3.71875 L 1.21875 -7.203125 C 1.21875 -8.425781 1.589844 -9.386719 2.335938 -10.082031 C 3.078125 -10.773438 4.101562 -11.121094 5.402344 -11.121094 C 6.28125 -11.121094 7.039062 -10.976562 7.679688 -10.679688 C 8.320312 -10.386719 8.796875 -9.972656 9.113281 -9.4375 C 9.429688 -8.90625 9.53125 -8.269531 9.421875 -7.539062 C 9.410156 -7.425781 9.347656 -7.371094 9.238281 -7.371094 L 8.15625 -7.371094 C 8.03125 -7.371094 7.980469 -7.425781 8.003906 -7.539062 C 8.039062 -8.046875 7.960938 -8.476562 7.769531 -8.820312 C 7.582031 -9.167969 7.292969 -9.425781 6.902344 -9.605469 C 6.515625 -9.78125 6.027344 -9.871094 5.4375 -9.871094 C 4.511719 -9.871094 3.816406 -9.648438 3.34375 -9.203125 C 2.871094 -8.761719 2.632812 -8.097656 2.632812 -7.21875 L 2.632812 -3.703125 C 2.632812 -2.8125 2.855469 -2.148438 3.300781 -1.710938 C 3.746094 -1.269531 4.417969 -1.050781 5.320312 -1.050781 C 6.242188 -1.050781 6.945312 -1.277344 7.429688 -1.734375 C 7.914062 -2.191406 8.15625 -2.847656 8.15625 -3.703125 L 8.15625 -4.335938 L 5.554688 -4.335938 C 5.441406 -4.335938 5.386719 -4.390625 5.386719 -4.503906 L 5.386719 -5.402344 C 5.386719 -5.515625 5.441406 -5.570312 5.554688 -5.570312 L 9.304688 -5.570312 C 9.417969 -5.570312 9.472656 -5.515625 9.472656 -5.402344 L 9.472656 -2.117188 C 9.472656 -1.773438 9.480469 -1.441406 9.496094 -1.125 C 9.511719 -0.808594 9.542969 -0.496094 9.589844 -0.183594 C 9.601562 -0.128906 9.589844 -0.0820312 9.5625 -0.0507812 C 9.535156 -0.015625 9.492188 0 9.4375 0 L 8.554688 0 C 8.511719 0 8.472656 -0.0117188 8.4375 -0.0351562 C 8.40625 -0.0546875 8.382812 -0.0898438 8.371094 -0.132812 C 8.347656 -0.277344 8.328125 -0.4375 8.304688 -0.617188 C 8.28125 -0.792969 8.265625 -0.984375 8.253906 -1.183594 L 8.238281 -1.183594 C 8.027344 -0.871094 7.761719 -0.613281 7.445312 -0.410156 C 7.128906 -0.203125 6.773438 -0.0507812 6.378906 0.0507812 C 5.984375 0.148438 5.558594 0.199219 5.101562 0.199219 Z M 5.101562 0.199219 "/></g></g></g><g fill="#fffdf5" fill-opacity="1"><g transform="translate(83.823498, 15.908205)"><g><path d="M 1.585938 0 C 1.472656 0 1.417969 -0.0546875 1.417969 -0.167969 L 1.417969 -10.753906 C 1.417969 -10.867188 1.472656 -10.921875 1.585938 -10.921875 L 2.667969 -10.921875 C 2.777344 -10.921875 2.835938 -10.867188 2.835938 -10.753906 L 2.835938 -0.167969 C 2.835938 -0.0546875 2.777344 0 2.667969 0 Z M 1.585938 0 "/></g></g></g><g fill="#fffdf5" fill-opacity="1"><g transform="translate(98.78024, 15.908205)"><g><path d="M 1.585938 0 C 1.472656 0 1.417969 -0.0546875 1.417969 -0.167969 L 1.417969 -10.753906 C 1.417969 -10.867188 1.472656 -10.921875 1.585938 -10.921875 L 4.800781 -10.921875 C 6.125 -10.921875 7.105469 -10.671875 7.746094 -10.171875 C 8.386719 -9.671875 8.703125 -8.921875 8.703125 -7.921875 C 8.703125 -7.121094 8.511719 -6.457031 8.128906 -5.929688 C 7.746094 -5.398438 7.203125 -5.035156 6.503906 -4.835938 L 6.503906 -4.820312 L 9.289062 -0.199219 C 9.320312 -0.144531 9.328125 -0.0976562 9.304688 -0.0585938 C 9.28125 -0.0195312 9.238281 0 9.171875 0 L 7.886719 0 C 7.796875 0 7.730469 -0.0390625 7.6875 -0.117188 L 4.96875 -4.652344 L 2.835938 -4.652344 L 2.835938 -0.167969 C 2.835938 -0.0546875 2.777344 0 2.667969 0 Z M 2.835938 -5.785156 L 4.652344 -5.785156 C 5.585938 -5.785156 6.257812 -5.949219 6.671875 -6.269531 C 7.082031 -6.59375 7.289062 -7.109375 7.289062 -7.820312 C 7.289062 -8.511719 7.09375 -9 6.710938 -9.289062 C 6.328125 -9.578125 5.675781 -9.722656 4.753906 -9.722656 L 2.835938 -9.722656 Z M 2.835938 -5.785156 "/></g></g></g><g fill="#fffdf5" fill-opacity="1"><g transform="translate(119.550811, 15.908205)"><g><path d="M 1.585938 0 C 1.472656 0 1.417969 -0.0546875 1.417969 -0.167969 L 1.417969 -10.753906 C 1.417969 -10.867188 1.472656 -10.921875 1.585938 -10.921875 L 2.667969 -10.921875 C 2.777344 -10.921875 2.835938 -10.867188 2.835938 -10.753906 L 2.835938 -1.285156 L 7.4375 -1.285156 C 7.546875 -1.285156 7.605469 -1.226562 7.605469 -1.117188 L 7.605469 -0.167969 C 7.605469 -0.0546875 7.546875 0 7.4375 0 Z M 1.585938 0 "/></g></g></g><g fill="#fffdf5" fill-opacity="1"><g transform="translate(138.18909, 15.908205)"><g><path d="M 4.636719 0.199219 C 3.300781 0.199219 2.324219 -0.0859375 1.699219 -0.660156 C 1.078125 -1.230469 0.800781 -1.980469 0.867188 -2.902344 C 0.878906 -3.101562 0.945312 -3.203125 1.066406 -3.203125 L 2.117188 -3.203125 C 2.25 -3.203125 2.316406 -3.113281 2.316406 -2.933594 C 2.316406 -2.257812 2.519531 -1.769531 2.917969 -1.476562 C 3.320312 -1.179688 3.929688 -1.035156 4.753906 -1.035156 C 5.542969 -1.035156 6.140625 -1.175781 6.546875 -1.460938 C 6.949219 -1.742188 7.152344 -2.171875 7.152344 -2.75 C 7.152344 -3.039062 7.105469 -3.289062 7.011719 -3.492188 C 6.917969 -3.699219 6.757812 -3.878906 6.535156 -4.035156 C 6.316406 -4.191406 6.015625 -4.347656 5.636719 -4.503906 L 3.183594 -5.519531 C 2.671875 -5.730469 2.257812 -5.96875 1.941406 -6.226562 C 1.625 -6.488281 1.398438 -6.789062 1.257812 -7.128906 C 1.121094 -7.46875 1.050781 -7.855469 1.050781 -8.289062 C 1.0625 -9.210938 1.371094 -9.910156 1.976562 -10.390625 C 2.582031 -10.867188 3.464844 -11.105469 4.621094 -11.105469 C 5.410156 -11.105469 6.09375 -10.988281 6.671875 -10.753906 C 7.25 -10.523438 7.6875 -10.183594 7.988281 -9.738281 C 8.289062 -9.292969 8.410156 -8.75 8.355469 -8.105469 C 8.332031 -7.894531 8.269531 -7.789062 8.171875 -7.789062 L 7.105469 -7.789062 C 7.046875 -7.789062 7.007812 -7.808594 6.980469 -7.855469 C 6.949219 -7.898438 6.941406 -7.980469 6.953125 -8.105469 C 7 -8.671875 6.804688 -9.109375 6.378906 -9.414062 C 5.949219 -9.71875 5.347656 -9.871094 4.570312 -9.871094 C 3.878906 -9.871094 3.359375 -9.75 3.011719 -9.503906 C 2.660156 -9.261719 2.480469 -8.882812 2.46875 -8.371094 C 2.46875 -8.105469 2.515625 -7.871094 2.609375 -7.671875 C 2.703125 -7.46875 2.867188 -7.289062 3.09375 -7.121094 C 3.320312 -6.953125 3.636719 -6.785156 4.035156 -6.621094 L 6.453125 -5.601562 C 6.964844 -5.390625 7.375 -5.160156 7.6875 -4.902344 C 8 -4.648438 8.222656 -4.347656 8.363281 -4.011719 C 8.5 -3.671875 8.570312 -3.261719 8.570312 -2.785156 C 8.570312 -1.851562 8.253906 -1.121094 7.621094 -0.59375 C 6.988281 -0.0625 5.992188 0.199219 4.636719 0.199219 Z M 4.636719 0.199219 "/></g></g></g></g></g><path fill="#efe6da" d="M 198.011719 220.695312 C 192.324219 219.867188 186.84375 216.109375 183.1875 210.59375 C 181.535156 208.078125 180.777344 206.078125 180.394531 203.113281 C 180.191406 201.390625 180.222656 201.25 180.914062 201.25 C 181.363281 201.25 181.636719 201.457031 181.636719 201.871094 C 181.636719 203.078125 183.015625 206.90625 183.945312 208.285156 C 186.015625 211.351562 189.667969 214.800781 191.980469 215.867188 C 192.460938 216.074219 193.117188 216.523438 193.425781 216.867188 C 193.773438 217.179688 194.425781 217.453125 194.875 217.453125 C 195.324219 217.453125 196.355469 217.695312 197.183594 218.003906 C 198.320312 218.382812 199.320312 218.488281 201.113281 218.316406 C 203.941406 218.074219 207.457031 217.210938 208.179688 216.625 C 208.457031 216.386719 209.113281 216.039062 209.664062 215.800781 C 210.179688 215.59375 210.59375 215.246094 210.59375 215.039062 C 210.59375 214.835938 211.144531 214.421875 211.800781 214.144531 C 212.457031 213.867188 213.007812 213.421875 213.007812 213.144531 C 213.007812 212.867188 213.421875 212.421875 213.972656 212.144531 C 215.109375 211.523438 218.765625 207.800781 222.9375 202.976562 C 229.210938 195.703125 232.828125 191.773438 234.140625 190.839844 L 235.070312 190.1875 L 235.070312 191.21875 C 235.070312 192.183594 234.964844 192.289062 234.035156 192.289062 C 233.484375 192.289062 233 192.460938 233 192.632812 C 233 192.839844 233.449219 192.976562 234 192.976562 C 235.621094 192.976562 236.105469 193.738281 236.105469 196.289062 C 236.105469 198.253906 236.035156 198.492188 235.414062 198.492188 C 234.933594 198.492188 234.726562 198.253906 234.726562 197.699219 C 234.726562 195.667969 232.933594 195.5625 231.070312 197.5625 C 229.246094 199.460938 223.417969 206.25 222.28125 207.800781 C 220.28125 210.457031 214.523438 216.179688 212.316406 217.660156 C 208.835938 219.96875 206.941406 220.589844 202.664062 220.730469 C 200.667969 220.796875 198.597656 220.761719 198.011719 220.695312 Z M 198.011719 220.695312 " fill-opacity="1" fill-rule="nonzero"/><path fill="#efe6da" d="M 135.375 218.9375 C 128.238281 215.28125 124.480469 209.351562 123.480469 200.253906 C 123.136719 197.289062 125.722656 188.496094 126.894531 188.496094 C 127.34375 188.496094 127.207031 191.152344 126.722656 191.667969 C 126.515625 191.910156 125.964844 193.425781 125.585938 195.046875 C 124.585938 199.011719 124.894531 201.90625 126.757812 206.492188 C 127.996094 209.457031 129.652344 212.25 130.238281 212.28125 C 130.34375 212.316406 131.203125 213.007812 132.132812 213.835938 C 133.101562 214.695312 133.996094 215.386719 134.167969 215.386719 C 134.375 215.386719 134.996094 215.765625 135.617188 216.214844 C 136.617188 217.007812 140.097656 218.144531 141.441406 218.144531 C 142.304688 218.144531 144.269531 216.179688 145.0625 214.523438 C 145.441406 213.695312 146.441406 212.007812 147.234375 210.765625 C 148.0625 209.523438 149.09375 207.871094 149.578125 207.078125 C 150.058594 206.285156 150.921875 204.871094 151.542969 203.976562 C 152.164062 203.078125 153.199219 201.285156 153.886719 199.976562 C 155.195312 197.460938 155.402344 197.148438 157.953125 193.425781 C 158.851562 192.082031 159.574219 190.875 159.574219 190.703125 C 159.574219 190.566406 159.917969 189.875 160.367188 189.222656 C 160.816406 188.53125 162.195312 186.429688 163.4375 184.53125 C 164.675781 182.636719 165.882812 180.707031 166.125 180.222656 C 166.367188 179.742188 166.988281 178.914062 167.503906 178.328125 C 168.019531 177.777344 169.503906 175.742188 170.777344 173.847656 C 172.019531 171.949219 173.328125 170.261719 173.640625 170.121094 C 174.5 169.710938 175.878906 167.089844 175.433594 166.640625 C 175.261719 166.46875 175.085938 165.367188 175.085938 164.261719 C 175.085938 162.4375 175.261719 161.882812 176.777344 159.230469 C 177.742188 157.609375 178.8125 155.402344 179.222656 154.300781 C 179.605469 153.230469 180.191406 152.164062 180.464844 151.921875 C 180.777344 151.679688 181.363281 150.679688 181.808594 149.679688 C 182.222656 148.714844 182.773438 147.785156 182.980469 147.679688 C 183.1875 147.542969 183.601562 146.886719 183.878906 146.234375 C 184.121094 145.613281 184.808594 144.476562 185.359375 143.785156 C 185.878906 143.0625 186.84375 141.304688 187.496094 139.890625 C 188.152344 138.476562 189.222656 136.546875 189.910156 135.582031 C 191.496094 133.410156 193.910156 129.273438 194.21875 128.238281 C 194.324219 127.824219 194.773438 127.308594 195.152344 127.101562 C 195.53125 126.894531 196.289062 125.757812 196.804688 124.585938 C 197.355469 123.414062 198.046875 122.242188 198.355469 121.964844 C 198.667969 121.6875 199.253906 120.894531 199.632812 120.136719 C 200.011719 119.378906 200.875 118.070312 201.527344 117.171875 C 203.699219 114.347656 207.148438 108.761719 207.148438 108.105469 C 207.148438 107.554688 207.457031 107.484375 209.421875 107.484375 C 211.113281 107.484375 211.59375 107.589844 211.421875 107.933594 C 211.285156 108.140625 209.90625 110.175781 208.386719 112.382812 C 205.628906 116.347656 199.183594 126.171875 197.324219 129.273438 C 196.875 130.03125 194.773438 133.445312 193.804688 135.03125 C 193.359375 135.71875 192.460938 137.269531 191.738281 138.511719 C 191.046875 139.753906 190.1875 141.167969 189.875 141.648438 C 187.910156 144.476562 180.257812 158.472656 180.257812 159.195312 C 180.257812 159.882812 180.914062 160.574219 181.570312 160.574219 C 181.84375 160.574219 183.566406 159.125 185.394531 157.402344 C 189.015625 153.957031 190.601562 152.75 193.910156 150.785156 C 195.738281 149.679688 196.152344 149.578125 196.941406 149.886719 C 197.460938 150.058594 198.21875 150.230469 198.597656 150.230469 C 199.011719 150.230469 199.839844 150.613281 200.492188 151.128906 C 201.492188 151.886719 201.632812 152.199219 201.632812 153.542969 C 201.632812 154.367188 201.5625 155.058594 201.492188 155.058594 C 201.425781 155.058594 200.804688 154.507812 200.113281 153.816406 C 198.941406 152.644531 198.734375 152.578125 197.183594 152.714844 C 194.117188 153.023438 192.011719 154.4375 186.496094 160.058594 C 179.808594 166.882812 175.085938 172.742188 168.710938 182.121094 C 167.433594 184.015625 165.953125 186.1875 165.433594 186.945312 C 163.609375 189.601562 156.367188 201.25 153.371094 206.421875 C 148.476562 214.765625 147.613281 216.144531 146.199219 217.9375 C 144.476562 220.074219 143.441406 220.554688 140.582031 220.554688 C 138.890625 220.554688 138.097656 220.316406 135.375 218.9375 Z M 135.375 218.9375 " fill-opacity="1" fill-rule="nonzero"/><path fill="#efe6da" d="M 245.929688 220.246094 C 241.964844 219.625 236.964844 215.660156 234.863281 211.523438 C 233.449219 208.730469 233.449219 208.492188 234.554688 208.492188 C 235.3125 208.492188 235.414062 208.628906 235.414062 209.699219 C 235.414062 210.664062 235.550781 210.902344 236.070312 210.902344 C 236.414062 210.902344 236.929688 211.25 237.242188 211.695312 C 237.964844 212.800781 242.207031 216.179688 244 217.109375 C 245.410156 217.796875 245.824219 217.867188 248.960938 217.625 C 253.203125 217.351562 254.71875 216.695312 258.40625 213.59375 C 260.960938 211.457031 263.335938 208.59375 263.335938 207.699219 C 263.335938 207.492188 263.613281 207.042969 263.921875 206.664062 C 264.921875 205.5625 265.683594 200.734375 265.234375 198.289062 C 264.714844 195.53125 262.925781 192.117188 260.890625 190.082031 C 259.960938 189.152344 259.199219 188.1875 259.199219 187.945312 C 259.199219 187.667969 258.890625 187.460938 258.511719 187.460938 C 257.683594 187.460938 256.097656 186.738281 256.097656 186.359375 C 256.097656 186.222656 255.71875 186.082031 255.269531 186.082031 C 253.410156 186.082031 252.304688 185.671875 252.304688 184.945312 C 252.304688 184.324219 252.480469 184.292969 254.066406 184.464844 C 258.441406 184.980469 263.890625 188.980469 266.027344 193.183594 C 268.820312 198.769531 268.820312 203.492188 265.992188 209.007812 C 264.921875 211.109375 261.371094 215.660156 260.578125 215.902344 C 260.199219 216.007812 259.890625 216.246094 259.890625 216.386719 C 259.890625 216.765625 256.960938 218.523438 254.890625 219.417969 C 252.925781 220.246094 248.582031 220.660156 245.929688 220.246094 Z M 245.929688 220.246094 " fill-opacity="1" fill-rule="nonzero"/><path fill="#efe6da" d="M 206.285156 212.28125 C 205.5625 210.902344 205.628906 208.628906 206.421875 207.320312 C 206.769531 206.734375 207.25 205.628906 207.492188 204.871094 C 207.734375 204.113281 208.214844 203.113281 208.5625 202.664062 C 208.941406 202.21875 209.214844 201.664062 209.214844 201.457031 C 209.214844 201.25 209.90625 200.078125 210.730469 198.839844 C 214.386719 193.390625 215.695312 191.394531 217.246094 188.910156 C 218.144531 187.460938 219.179688 185.980469 219.488281 185.566406 C 220.382812 184.566406 222.316406 181.429688 222.316406 180.980469 C 222.316406 180.773438 222.695312 180.1875 223.140625 179.636719 C 223.625 179.085938 224.695312 177.191406 225.589844 175.464844 C 227.589844 171.46875 228.246094 168.15625 227.867188 163.988281 C 227.589844 161.023438 227.246094 160.023438 226.3125 159.195312 C 226.003906 158.953125 225.761719 158.402344 225.761719 157.953125 C 225.761719 156.851562 224.246094 154.472656 223.382812 154.195312 C 223.003906 154.09375 222.351562 153.472656 221.96875 152.816406 C 221.558594 152.164062 220.765625 151.335938 220.210938 151.023438 C 219.660156 150.679688 219.210938 150.300781 219.210938 150.164062 C 219.210938 150.027344 219.039062 149.886719 218.800781 149.886719 C 218.59375 149.886719 217.765625 149.613281 217.007812 149.234375 C 214.800781 148.234375 211.214844 147.472656 208.527344 147.472656 C 205.835938 147.472656 205.25 146.886719 207.25 146.164062 C 208.628906 145.648438 209.765625 145.648438 211.699219 146.09375 C 212.523438 146.269531 214.078125 146.613281 215.179688 146.820312 C 217.832031 147.371094 221.488281 149.300781 224.003906 151.4375 C 228.382812 155.195312 230.589844 160.265625 230.589844 166.710938 C 230.589844 172.5 228.796875 176.84375 222.144531 186.945312 C 215.074219 197.699219 213.144531 200.699219 211.730469 203.148438 C 208.800781 208.214844 208.007812 210.902344 209.007812 212.457031 L 209.558594 213.316406 L 208.179688 213.316406 C 207.007812 213.316406 206.734375 213.179688 206.285156 212.28125 Z M 206.285156 212.28125 " fill-opacity="1" fill-rule="nonzero"/><path fill="#efe6da" d="M 180.257812 197.390625 C 180.257812 197.183594 180.5 195.976562 180.808594 194.738281 C 181.429688 192.21875 182.328125 190.21875 183.152344 189.566406 C 183.636719 189.152344 183.707031 189.253906 183.707031 190.359375 C 183.707031 191.21875 183.566406 191.597656 183.1875 191.597656 C 182.84375 191.597656 182.671875 191.945312 182.671875 192.632812 C 182.671875 193.21875 182.535156 193.667969 182.359375 193.667969 C 182.222656 193.667969 181.980469 194.597656 181.84375 195.734375 C 181.636719 197.496094 181.5 197.804688 180.949219 197.804688 C 180.570312 197.804688 180.257812 197.632812 180.257812 197.390625 Z M 180.257812 197.390625 " fill-opacity="1" fill-rule="nonzero"/><path fill="#efe6da" d="M 183.980469 187.910156 C 184.359375 186.910156 185.222656 185.738281 185.53125 185.738281 C 185.707031 185.738281 185.773438 186.324219 185.707031 187.050781 C 185.601562 188.152344 185.464844 188.324219 184.671875 188.429688 C 183.878906 188.53125 183.742188 188.429688 183.980469 187.910156 Z M 183.980469 187.910156 " fill-opacity="1" fill-rule="nonzero"/><path fill="#efe6da" d="M 243.34375 185.808594 C 243.34375 185.394531 244.550781 184.773438 245.894531 184.53125 C 246.996094 184.324219 247.136719 184.359375 247.136719 184.980469 C 247.136719 185.394531 246.824219 185.738281 246.378906 185.878906 C 245.273438 186.152344 243.34375 186.117188 243.34375 185.808594 Z M 243.34375 185.808594 " fill-opacity="1" fill-rule="nonzero"/><path fill="#efe6da" d="M 187.496094 182.085938 C 187.496094 181.671875 189.015625 179.535156 189.324219 179.535156 C 189.496094 179.535156 189.566406 180.121094 189.496094 180.84375 C 189.394531 181.945312 189.257812 182.121094 188.464844 182.222656 C 187.910156 182.292969 187.496094 182.222656 187.496094 182.085938 Z M 187.496094 182.085938 " fill-opacity="1" fill-rule="nonzero"/><path fill="#efe6da" d="M 131.546875 179.464844 C 132.753906 177.328125 133.375 176.984375 133.375 178.464844 C 133.375 180.222656 132.722656 181.257812 131.546875 181.257812 L 130.550781 181.257812 Z M 131.546875 179.464844 " fill-opacity="1" fill-rule="nonzero"/><path fill="#efe6da" d="M 133.03125 176.8125 C 133.03125 176.605469 133.410156 176.019531 133.894531 175.5 L 134.71875 174.535156 L 134.753906 175.84375 C 134.753906 176.984375 134.652344 177.121094 133.894531 177.121094 C 133.410156 177.121094 133.03125 176.984375 133.03125 176.8125 Z M 133.03125 176.8125 " fill-opacity="1" fill-rule="nonzero"/><path fill="#efe6da" d="M 193.253906 172.570312 C 195.082031 169.46875 195.425781 169.226562 195.425781 170.882812 C 195.425781 172.777344 194.875 173.671875 193.667969 173.671875 L 192.601562 173.671875 Z M 193.253906 172.570312 " fill-opacity="1" fill-rule="nonzero"/><path fill="#efe6da" d="M 136.269531 171.363281 C 136.617188 170.433594 137.996094 168.503906 138.304688 168.503906 C 138.71875 168.503906 138.546875 170.710938 138.0625 171.363281 C 137.824219 171.675781 137.269531 171.949219 136.824219 171.949219 C 136.238281 171.949219 136.097656 171.8125 136.269531 171.363281 Z M 136.269531 171.363281 " fill-opacity="1" fill-rule="nonzero"/><path fill="#efe6da" d="M 196.324219 167.332031 C 196.804688 166.503906 197.390625 165.605469 197.667969 165.398438 C 198.117188 165.019531 198.183594 165.125 198.183594 166.019531 C 198.183594 167.917969 197.632812 168.847656 196.496094 168.847656 L 195.460938 168.847656 Z M 196.324219 167.332031 " fill-opacity="1" fill-rule="nonzero"/><path fill="#efe6da" d="M 200.597656 158.4375 C 200.597656 157.402344 201.046875 156.4375 201.492188 156.4375 C 201.804688 156.4375 201.976562 156.851562 201.976562 157.644531 C 201.976562 158.609375 201.839844 158.851562 201.285156 158.851562 C 200.90625 158.851562 200.597656 158.644531 200.597656 158.4375 Z M 200.597656 158.4375 " fill-opacity="1" fill-rule="nonzero"/><path fill="#efe6da" d="M 144.75 157.265625 C 144.75 156.816406 146.199219 154.714844 146.511719 154.714844 C 146.714844 154.714844 146.820312 155.300781 146.75 156.023438 C 146.648438 157.125 146.511719 157.300781 145.71875 157.402344 C 145.164062 157.472656 144.75 157.402344 144.75 157.265625 Z M 144.75 157.265625 " fill-opacity="1" fill-rule="nonzero"/><path fill="#efe6da" d="M 201.632812 147.679688 C 201.632812 147.371094 202.285156 147.0625 203.355469 146.820312 C 205.664062 146.335938 205.769531 146.335938 205.769531 147.09375 C 205.769531 147.578125 205.421875 147.785156 204.492188 147.957031 C 202.425781 148.265625 201.632812 148.199219 201.632812 147.679688 Z M 201.632812 147.679688 " fill-opacity="1" fill-rule="nonzero"/><path fill="#efe6da" d="M 150.613281 147.613281 C 150.613281 147.164062 152.128906 144.714844 152.40625 144.714844 C 152.714844 144.714844 152.785156 146.476562 152.472656 147.269531 C 152.265625 147.785156 150.613281 148.09375 150.613281 147.613281 Z M 150.613281 147.613281 " fill-opacity="1" fill-rule="nonzero"/><path fill="#efe6da" d="M 154.058594 141.820312 C 154.472656 141.164062 155.023438 140.441406 155.300781 140.199219 C 155.75 139.820312 155.816406 139.960938 155.714844 141.304688 C 155.609375 142.75 155.542969 142.820312 154.472656 142.925781 L 153.371094 143.027344 Z M 154.058594 141.820312 " fill-opacity="1" fill-rule="nonzero"/><path fill="#efe6da" d="M 159.507812 133.859375 C 160.574219 132.066406 160.953125 131.925781 160.953125 133.304688 C 160.953125 134.925781 160.609375 135.410156 159.539062 135.410156 L 158.539062 135.410156 Z M 159.507812 133.859375 " fill-opacity="1" fill-rule="nonzero"/><path fill="#efe6da" d="M 163.746094 128.617188 C 164.574219 127.515625 169.710938 122.308594 169.984375 122.308594 C 170.15625 122.308594 170.261719 122.792969 170.261719 123.378906 C 170.261719 124.445312 169.777344 125.03125 167.226562 127.238281 C 166.640625 127.757812 165.988281 128.167969 165.78125 128.167969 C 165.609375 128.167969 165.433594 128.410156 165.433594 128.6875 C 165.433594 129.03125 165.089844 129.203125 164.367188 129.203125 C 163.402344 129.203125 163.332031 129.136719 163.746094 128.617188 Z M 163.746094 128.617188 " fill-opacity="1" fill-rule="nonzero"/><path fill="#efe6da" d="M 174.054688 119.035156 C 174.292969 118.757812 175.671875 117.792969 177.121094 116.898438 C 178.570312 116 180.257812 114.898438 180.914062 114.484375 C 182.394531 113.484375 182.671875 113.484375 182.671875 114.484375 C 182.671875 115.035156 182.363281 115.449219 181.742188 115.792969 C 181.1875 116.070312 180.570312 116.484375 180.328125 116.726562 C 180.085938 116.933594 179.5 117.136719 179.015625 117.136719 C 178.5 117.136719 178.191406 117.34375 178.191406 117.65625 C 178.191406 117.929688 177.949219 118.171875 177.671875 118.171875 C 177.398438 118.171875 177.15625 118.34375 177.15625 118.515625 C 177.15625 118.722656 176.914062 118.863281 176.640625 118.863281 C 176.363281 118.863281 176.121094 119.035156 176.121094 119.207031 C 176.121094 119.414062 175.570312 119.550781 174.878906 119.550781 C 173.8125 119.550781 173.675781 119.484375 174.054688 119.035156 Z M 174.054688 119.035156 " fill-opacity="1" fill-rule="nonzero"/><path fill="#efe6da" d="M 189.636719 111.210938 C 189.808594 110.726562 192.425781 109.726562 194.425781 109.382812 C 195.597656 109.175781 195.769531 109.246094 195.769531 109.832031 C 195.769531 110.554688 194.910156 110.933594 193.289062 110.933594 C 192.738281 110.933594 192.324219 111.105469 192.324219 111.277344 C 192.324219 111.484375 191.703125 111.621094 190.910156 111.621094 C 189.945312 111.621094 189.566406 111.484375 189.636719 111.210938 Z M 189.636719 111.210938 " fill-opacity="1" fill-rule="nonzero"/><path fill="#efe6da" d="M 196.117188 109.554688 C 196.117188 108.933594 197.390625 108.589844 201.839844 108.039062 C 204.285156 107.726562 206.421875 107.484375 206.5625 107.484375 C 206.769531 107.484375 206.941406 108.863281 206.734375 108.863281 C 206.664062 108.863281 204.628906 109.105469 202.148438 109.382812 C 196.804688 109.96875 196.117188 110.003906 196.117188 109.554688 Z M 196.117188 109.554688 " fill-opacity="1" fill-rule="nonzero"/><path fill="#efe6da" d="M 196.117188 219.039062 C 195.460938 218.765625 194.496094 218.523438 193.980469 218.523438 C 193.425781 218.488281 192.738281 218.210938 192.394531 217.902344 C 192.082031 217.558594 191.425781 217.109375 190.945312 216.902344 C 189.566406 216.28125 186.703125 213.972656 185.222656 212.28125 C 181.949219 208.59375 180.707031 205.527344 180.363281 200.5625 C 180.121094 197.011719 181.050781 192.738281 182.636719 190.253906 C 183.601562 188.703125 186.566406 183.738281 189.566406 178.570312 C 191.601562 175.050781 193.046875 172.847656 193.425781 172.605469 C 193.597656 172.5 194.152344 171.570312 194.597656 170.535156 C 195.082031 169.503906 195.703125 168.433594 195.945312 168.15625 C 196.769531 167.226562 198.5625 163.675781 199.804688 160.4375 C 200.875 157.710938 201.011719 157.023438 200.839844 155.230469 C 200.667969 153.4375 200.492188 153.023438 199.5625 152.265625 C 198.804688 151.609375 197.875 151.265625 196.5625 151.09375 C 194.773438 150.886719 194.703125 150.816406 195.253906 150.230469 C 196.046875 149.371094 199.390625 147.921875 202.5625 147.09375 C 207.386719 145.855469 214.007812 146.335938 218.039062 148.199219 C 218.800781 148.578125 219.695312 148.851562 220.039062 148.851562 C 220.351562 148.851562 220.558594 148.992188 220.453125 149.128906 C 220.351562 149.300781 220.730469 149.679688 221.28125 149.992188 C 221.832031 150.335938 222.589844 151.128906 223.003906 151.785156 C 223.382812 152.4375 224.039062 153.058594 224.417969 153.164062 C 225.28125 153.4375 226.796875 155.816406 226.796875 156.886719 C 226.796875 157.332031 227.105469 157.988281 227.484375 158.332031 C 228.417969 159.195312 228.796875 160.574219 229.039062 164.367188 C 229.3125 169.019531 228.625 172.433594 226.625 176.5 C 225.726562 178.222656 224.660156 180.121094 224.175781 180.671875 C 223.730469 181.222656 223.347656 181.808594 223.347656 182.015625 C 223.347656 182.464844 221.417969 185.601562 220.523438 186.601562 C 220.210938 187.015625 219.179688 188.496094 218.28125 189.945312 C 216.730469 192.425781 215.421875 194.425781 211.765625 199.871094 C 210.9375 201.113281 210.25 202.285156 210.25 202.492188 C 210.25 202.699219 209.972656 203.25 209.59375 203.699219 C 209.25 204.148438 208.871094 204.90625 208.734375 205.386719 C 208.59375 205.871094 208.078125 207.078125 207.5625 208.078125 C 206.699219 209.835938 206.699219 209.90625 207.25 211.078125 C 207.5625 211.730469 207.972656 212.28125 208.179688 212.28125 C 208.386719 212.28125 209.007812 212.628906 209.558594 213.042969 L 210.558594 213.765625 L 212.523438 212.867188 C 213.800781 212.316406 215.351562 211.144531 216.800781 209.730469 C 219.109375 207.421875 220.109375 206.871094 219.625 208.113281 C 219.246094 209.113281 213.730469 215.039062 213.179688 215.039062 C 212.902344 215.039062 212.214844 215.523438 211.628906 216.074219 C 211.042969 216.660156 210.386719 217.109375 210.179688 217.109375 C 209.972656 217.109375 209.527344 217.316406 209.25 217.589844 C 207.664062 219.003906 198.496094 220.003906 196.117188 219.039062 Z M 196.117188 219.039062 " fill-opacity="1" fill-rule="nonzero"/><path fill="#efe6da" d="M 137.546875 218.625 C 136.546875 218.351562 135.203125 217.730469 134.582031 217.246094 C 133.996094 216.800781 133.339844 216.417969 133.132812 216.417969 C 132.960938 216.417969 132.066406 215.730469 131.101562 214.867188 C 130.167969 214.042969 129.308594 213.351562 129.203125 213.316406 C 128.617188 213.28125 126.964844 210.492188 125.722656 207.527344 C 124.652344 204.871094 124.273438 203.457031 124 200.699219 C 123.6875 197.5625 123.722656 196.941406 124.414062 194.496094 C 125.171875 191.703125 125.308594 191.324219 127.171875 187.460938 C 128.894531 183.910156 130.238281 181.5 130.996094 180.601562 C 131.410156 180.15625 131.960938 179.222656 132.238281 178.535156 C 132.722656 177.363281 134.511719 174.328125 141.199219 163.226562 C 142.785156 160.609375 144.0625 158.367188 144.0625 158.265625 C 144.0625 158.125 144.441406 157.539062 144.925781 156.917969 C 145.40625 156.300781 145.785156 155.714844 145.785156 155.644531 C 145.785156 155.539062 146.441406 154.367188 147.269531 153.023438 C 148.0625 151.714844 149.40625 149.472656 150.234375 148.09375 C 151.058594 146.714844 152.300781 144.75 152.992188 143.71875 C 153.679688 142.71875 154.609375 141.234375 155.058594 140.441406 C 155.507812 139.683594 156.574219 138.097656 157.402344 136.960938 C 158.230469 135.824219 159.195312 134.445312 159.507812 133.890625 C 160.367188 132.410156 164.640625 127.480469 166.089844 126.273438 C 166.78125 125.722656 167.746094 124.792969 168.296875 124.207031 C 170.8125 121.515625 171.984375 120.449219 174.226562 118.898438 C 180.257812 114.761719 185.464844 112.003906 189.1875 110.96875 C 190.496094 110.589844 191.875 110.140625 192.253906 109.933594 C 192.667969 109.726562 193.117188 109.589844 193.253906 109.625 C 193.394531 109.65625 194.703125 109.449219 196.117188 109.140625 C 200.941406 108.070312 208.492188 107.347656 209.042969 107.898438 C 209.179688 108.039062 209.007812 108.589844 208.664062 109.140625 C 204.976562 114.863281 203.699219 116.757812 202.597656 118.171875 C 201.90625 119.070312 201.046875 120.414062 200.667969 121.171875 C 200.289062 121.894531 199.699219 122.722656 199.390625 123 C 199.082031 123.273438 198.390625 124.445312 197.839844 125.617188 C 197.324219 126.789062 196.5625 127.929688 196.183594 128.136719 C 195.804688 128.34375 195.359375 128.859375 195.253906 129.273438 C 194.945312 130.308594 192.53125 134.445312 190.945312 136.617188 C 190.253906 137.582031 189.1875 139.511719 188.53125 140.925781 C 187.878906 142.339844 186.910156 144.097656 186.394531 144.820312 C 185.84375 145.507812 185.152344 146.648438 184.914062 147.265625 C 184.636719 147.921875 184.222656 148.578125 184.015625 148.714844 C 183.808594 148.820312 183.257812 149.75 182.84375 150.714844 C 182.394531 151.714844 181.808594 152.714844 181.5 152.957031 C 181.222656 153.195312 180.636719 154.265625 180.257812 155.335938 C 179.84375 156.4375 178.777344 158.644531 177.8125 160.265625 C 176.15625 163.160156 175.671875 165.089844 176.5 165.574219 C 176.671875 165.710938 177.121094 165.574219 177.433594 165.296875 C 178.050781 164.746094 178.984375 164.433594 179.191406 164.710938 C 179.464844 165.089844 178.8125 166.398438 178.226562 166.605469 C 177.878906 166.710938 177.085938 167.710938 176.433594 168.847656 C 175.777344 169.949219 174.984375 170.984375 174.675781 171.15625 C 174.363281 171.296875 173.054688 172.984375 171.8125 174.878906 C 170.539062 176.777344 169.054688 178.808594 168.539062 179.363281 C 168.019531 179.949219 167.398438 180.773438 167.160156 181.257812 C 166.917969 181.738281 165.710938 183.671875 164.46875 185.566406 C 163.230469 187.460938 161.851562 189.566406 161.402344 190.253906 C 160.953125 190.910156 160.609375 191.597656 160.609375 191.738281 C 160.609375 191.910156 159.886719 193.117188 158.988281 194.460938 C 156.4375 198.183594 156.230469 198.492188 154.921875 201.011719 C 154.230469 202.320312 153.199219 204.113281 152.578125 205.007812 C 151.957031 205.90625 151.09375 207.320312 150.613281 208.113281 C 150.128906 208.90625 149.09375 210.558594 148.269531 211.800781 C 147.476562 213.042969 146.476562 214.730469 146.097656 215.558594 C 145.683594 216.417969 144.820312 217.558594 144.199219 218.144531 C 143.164062 219.039062 142.753906 219.175781 141.199219 219.144531 C 140.203125 219.144531 138.582031 218.902344 137.546875 218.625 Z M 137.546875 218.625 " fill-opacity="1" fill-rule="nonzero"/><path fill="#efe6da" d="M 245.410156 218.867188 C 244.550781 218.730469 243.308594 218.351562 242.652344 218.003906 C 241.066406 217.179688 236.863281 213.730469 236.207031 212.730469 C 235.933594 212.28125 235.550781 212.007812 235.414062 212.109375 C 235.140625 212.28125 234.378906 210.800781 234.378906 210.042969 C 234.378906 209.765625 234.277344 209.523438 234.105469 209.523438 C 233.792969 209.523438 233 206.25 233 204.871094 C 233 204.320312 233.140625 203.421875 233.3125 202.835938 C 233.484375 202.25 233.96875 200.699219 234.347656 199.355469 C 235.550781 195.355469 235.277344 194.152344 233.105469 194.289062 C 232.105469 194.355469 231.449219 194.703125 230.347656 195.804688 C 229.519531 196.597656 228.761719 197.148438 228.65625 197.011719 C 228.3125 196.703125 230.175781 194.355469 230.761719 194.355469 C 231.035156 194.355469 231.484375 193.910156 231.761719 193.359375 C 232.070312 192.804688 232.96875 191.839844 233.761719 191.21875 C 234.585938 190.601562 235.3125 189.980469 235.414062 189.875 C 235.828125 189.460938 239.515625 187.117188 240.757812 186.496094 C 242.929688 185.464844 246.410156 184.429688 248.753906 184.1875 C 251.203125 183.910156 255.445312 184.703125 257.511719 185.773438 C 258.203125 186.152344 258.992188 186.429688 259.304688 186.429688 C 259.582031 186.429688 260.0625 186.808594 260.371094 187.289062 C 260.683594 187.738281 261.546875 188.703125 262.269531 189.425781 C 264.0625 191.152344 265.921875 194.976562 266.40625 197.976562 C 266.785156 200.011719 266.75 200.871094 266.234375 203.664062 C 265.855469 205.628906 265.371094 207.214844 264.992188 207.664062 C 264.648438 208.042969 264.371094 208.527344 264.371094 208.699219 C 264.371094 209.628906 261.992188 212.457031 259.441406 214.628906 C 256.234375 217.316406 253.859375 218.523438 251.617188 218.625 C 250.753906 218.695312 249.375 218.796875 248.515625 218.902344 C 247.652344 219.003906 246.273438 219.003906 245.410156 218.867188 Z M 245.410156 218.867188 " fill-opacity="1" fill-rule="nonzero"/><path fill="#efe6da" d="M 221.28125 205.320312 C 221.28125 204.664062 223.453125 202.457031 223.625 202.941406 C 223.796875 203.492188 222.832031 204.941406 221.96875 205.386719 C 221.453125 205.664062 221.28125 205.664062 221.28125 205.320312 Z M 221.28125 205.320312 " fill-opacity="1" fill-rule="nonzero"/><path fill="#efe6da" d="M 225.074219 201.183594 C 225.109375 200.597656 226.417969 198.875 226.453125 199.425781 C 226.453125 200.148438 225.796875 201.597656 225.417969 201.597656 C 225.246094 201.597656 225.074219 201.390625 225.074219 201.183594 Z M 225.074219 201.183594 " fill-opacity="1" fill-rule="nonzero"/><path fill="#efe6da" d="M 180.601562 162.847656 C 180.601562 162.574219 180.707031 162.125 180.808594 161.847656 C 181.085938 161.058594 184.328125 158.472656 184.53125 158.816406 C 184.773438 159.160156 182.464844 162.054688 181.328125 162.847656 C 180.707031 163.296875 180.601562 163.296875 180.601562 162.847656 Z M 180.601562 162.847656 " fill-opacity="1" fill-rule="nonzero"/><path fill="#efe6da" d="M 185.429688 157.609375 C 185.429688 157.300781 188.257812 154.574219 189.359375 153.851562 C 192.773438 151.542969 194.046875 150.816406 194.046875 151.164062 C 194.046875 151.75 193.460938 152.300781 192.324219 152.785156 C 191.667969 153.09375 190.046875 154.335938 188.703125 155.574219 C 186.566406 157.539062 185.429688 158.265625 185.429688 157.609375 Z M 185.429688 157.609375 " fill-opacity="1" fill-rule="nonzero"/></svg>