<svg xmlns="http://www.w3.org/2000/svg" xmlns:xlink="http://www.w3.org/1999/xlink" width="500" zoomAndPan="magnify" viewBox="0 0 375 374.999991" height="500" preserveAspectRatio="xMidYMid meet" version="1.0"><path fill="#dccfc2" d="M 190.097656 268.832031 C 181.550781 267.589844 173.316406 261.941406 167.824219 253.65625 C 165.335938 249.875 164.199219 246.867188 163.628906 242.414062 C 163.316406 239.824219 163.371094 239.617188 164.40625 239.617188 C 165.078125 239.617188 165.492188 239.925781 165.492188 240.550781 C 165.492188 242.363281 167.566406 248.113281 168.964844 250.183594 C 172.070312 254.792969 177.5625 259.976562 181.035156 261.582031 C 181.757812 261.890625 182.742188 262.566406 183.210938 263.082031 C 183.726562 263.550781 184.710938 263.964844 185.386719 263.964844 C 186.058594 263.964844 187.613281 264.324219 188.855469 264.792969 C 190.566406 265.363281 192.066406 265.519531 194.761719 265.257812 C 199.007812 264.894531 204.292969 263.601562 205.378906 262.71875 C 205.792969 262.359375 206.777344 261.839844 207.609375 261.476562 C 208.382812 261.167969 209.007812 260.648438 209.007812 260.335938 C 209.007812 260.027344 209.835938 259.40625 210.820312 258.992188 C 211.804688 258.578125 212.632812 257.902344 212.632812 257.488281 C 212.632812 257.074219 213.253906 256.402344 214.082031 255.984375 C 215.792969 255.054688 221.285156 249.460938 227.550781 242.207031 C 236.980469 231.277344 242.417969 225.371094 244.386719 223.972656 L 245.785156 222.988281 L 245.785156 224.542969 C 245.785156 225.992188 245.628906 226.148438 244.230469 226.148438 C 243.402344 226.148438 242.675781 226.40625 242.675781 226.667969 C 242.675781 226.976562 243.351562 227.183594 244.179688 227.183594 C 246.613281 227.183594 247.339844 228.324219 247.339844 232.15625 C 247.339844 235.109375 247.234375 235.472656 246.304688 235.472656 C 245.578125 235.472656 245.265625 235.109375 245.265625 234.28125 C 245.265625 231.226562 242.574219 231.070312 239.777344 234.074219 C 237.03125 236.921875 228.277344 247.128906 226.566406 249.460938 C 223.5625 253.449219 214.910156 262.046875 211.597656 264.273438 C 206.363281 267.746094 203.515625 268.675781 197.09375 268.882812 C 194.085938 268.988281 190.980469 268.9375 190.097656 268.832031 Z M 190.097656 268.832031 " fill-opacity="1" fill-rule="nonzero"/><path fill="#dccfc2" d="M 95.976562 266.191406 C 85.253906 260.699219 79.605469 251.789062 78.105469 238.113281 C 77.585938 233.660156 81.472656 220.449219 83.234375 220.449219 C 83.90625 220.449219 83.699219 224.4375 82.972656 225.214844 C 82.664062 225.578125 81.832031 227.859375 81.265625 230.292969 C 79.761719 236.25 80.226562 240.601562 83.027344 247.492188 C 84.890625 251.945312 87.375 256.140625 88.257812 256.195312 C 88.414062 256.246094 89.707031 257.28125 91.105469 258.523438 C 92.558594 259.820312 93.902344 260.855469 94.164062 260.855469 C 94.472656 260.855469 95.40625 261.425781 96.339844 262.097656 C 97.839844 263.289062 103.074219 265 105.09375 265 C 106.386719 265 109.339844 262.046875 110.53125 259.558594 C 111.101562 258.316406 112.605469 255.777344 113.796875 253.914062 C 115.039062 252.050781 116.59375 249.5625 117.316406 248.371094 C 118.042969 247.179688 119.339844 245.054688 120.269531 243.710938 C 121.203125 242.363281 122.757812 239.667969 123.792969 237.699219 C 125.761719 233.917969 126.074219 233.453125 129.90625 227.859375 C 131.253906 225.835938 132.339844 224.023438 132.339844 223.765625 C 132.339844 223.558594 132.859375 222.523438 133.53125 221.539062 C 134.207031 220.503906 136.277344 217.34375 138.140625 214.492188 C 140.007812 211.644531 141.820312 208.742188 142.183594 208.019531 C 142.546875 207.292969 143.476562 206.050781 144.253906 205.167969 C 145.03125 204.339844 147.257812 201.285156 149.175781 198.433594 C 151.039062 195.585938 153.007812 193.046875 153.476562 192.839844 C 154.769531 192.21875 156.84375 188.28125 156.167969 187.609375 C 155.910156 187.347656 155.652344 185.691406 155.652344 184.035156 C 155.652344 181.289062 155.910156 180.460938 158.1875 176.472656 C 159.640625 174.035156 161.246094 170.722656 161.867188 169.0625 C 162.4375 167.457031 163.316406 165.851562 163.730469 165.488281 C 164.199219 165.125 165.078125 163.625 165.753906 162.121094 C 166.375 160.671875 167.203125 159.273438 167.511719 159.117188 C 167.824219 158.910156 168.445312 157.925781 168.859375 156.941406 C 169.222656 156.007812 170.257812 154.300781 171.085938 153.265625 C 171.863281 152.175781 173.316406 149.535156 174.300781 147.410156 C 175.285156 145.285156 176.890625 142.386719 177.925781 140.933594 C 180.308594 137.671875 183.933594 131.457031 184.402344 129.902344 C 184.554688 129.28125 185.230469 128.503906 185.800781 128.191406 C 186.367188 127.882812 187.507812 126.171875 188.285156 124.410156 C 189.113281 122.648438 190.152344 120.886719 190.617188 120.472656 C 191.082031 120.058594 191.964844 118.867188 192.535156 117.726562 C 193.101562 116.589844 194.398438 114.621094 195.382812 113.273438 C 198.644531 109.027344 203.828125 100.632812 203.828125 99.648438 C 203.828125 98.820312 204.292969 98.71875 207.246094 98.71875 C 209.785156 98.71875 210.507812 98.871094 210.25 99.390625 C 210.042969 99.703125 207.96875 102.757812 205.691406 106.074219 C 201.546875 112.03125 191.859375 126.792969 189.0625 131.457031 C 188.390625 132.59375 185.230469 137.722656 183.777344 140.105469 C 183.105469 141.144531 181.757812 143.472656 180.671875 145.339844 C 179.636719 147.203125 178.339844 149.328125 177.875 150.050781 C 174.921875 154.300781 163.421875 175.332031 163.421875 176.417969 C 163.421875 177.457031 164.40625 178.492188 165.390625 178.492188 C 165.804688 178.492188 168.394531 176.316406 171.140625 173.726562 C 176.578125 168.546875 178.960938 166.734375 183.933594 163.78125 C 186.679688 162.121094 187.300781 161.964844 188.492188 162.433594 C 189.269531 162.691406 190.410156 162.949219 190.980469 162.949219 C 191.601562 162.949219 192.84375 163.519531 193.828125 164.296875 C 195.332031 165.4375 195.539062 165.902344 195.539062 167.925781 C 195.539062 169.167969 195.433594 170.203125 195.332031 170.203125 C 195.226562 170.203125 194.292969 169.375 193.257812 168.339844 C 191.496094 166.578125 191.1875 166.472656 188.855469 166.679688 C 184.246094 167.148438 181.085938 169.269531 172.796875 177.714844 C 162.746094 187.972656 155.652344 196.777344 146.066406 210.867188 C 144.152344 213.714844 141.921875 216.980469 141.144531 218.121094 C 138.402344 222.109375 127.523438 239.617188 123.015625 247.386719 C 115.660156 259.921875 114.363281 261.996094 112.242188 264.6875 C 109.652344 267.902344 108.097656 268.625 103.796875 268.625 C 101.257812 268.625 100.066406 268.261719 95.976562 266.191406 Z M 95.976562 266.191406 " fill-opacity="1" fill-rule="nonzero"/><path fill="#dccfc2" d="M 262.101562 268.160156 C 256.144531 267.226562 248.632812 261.269531 245.472656 255.054688 C 243.351562 250.859375 243.351562 250.496094 245.007812 250.496094 C 246.148438 250.496094 246.304688 250.703125 246.304688 252.308594 C 246.304688 253.757812 246.511719 254.121094 247.289062 254.121094 C 247.804688 254.121094 248.582031 254.640625 249.046875 255.3125 C 250.136719 256.96875 256.507812 262.046875 259.203125 263.445312 C 261.324219 264.480469 261.949219 264.585938 266.660156 264.222656 C 273.03125 263.808594 275.3125 262.824219 280.855469 258.160156 C 284.6875 254.949219 288.261719 250.652344 288.261719 249.304688 C 288.261719 248.992188 288.675781 248.320312 289.144531 247.75 C 290.644531 246.09375 291.785156 238.839844 291.113281 235.160156 C 290.335938 231.019531 287.640625 225.890625 284.585938 222.832031 C 283.1875 221.433594 282.046875 219.984375 282.046875 219.621094 C 282.046875 219.207031 281.578125 218.894531 281.011719 218.894531 C 279.765625 218.894531 277.382812 217.808594 277.382812 217.238281 C 277.382812 217.03125 276.8125 216.824219 276.140625 216.824219 C 273.34375 216.824219 271.6875 216.203125 271.6875 215.113281 C 271.6875 214.183594 271.945312 214.128906 274.328125 214.390625 C 280.90625 215.167969 289.089844 221.175781 292.304688 227.496094 C 296.5 235.886719 296.5 242.984375 292.25 251.273438 C 290.644531 254.433594 285.308594 261.269531 284.117188 261.632812 C 283.546875 261.789062 283.082031 262.152344 283.082031 262.359375 C 283.082031 262.925781 278.679688 265.570312 275.570312 266.917969 C 272.617188 268.160156 266.089844 268.78125 262.101562 268.160156 Z M 262.101562 268.160156 " fill-opacity="1" fill-rule="nonzero"/><path fill="#dccfc2" d="M 202.53125 256.191406 C 201.441406 254.121094 201.546875 250.703125 202.738281 248.734375 C 203.257812 247.851562 203.980469 246.195312 204.34375 245.054688 C 204.707031 243.917969 205.433594 242.414062 205.949219 241.742188 C 206.519531 241.066406 206.933594 240.238281 206.933594 239.925781 C 206.933594 239.617188 207.96875 237.855469 209.214844 235.992188 C 214.703125 227.804688 216.671875 224.800781 219.003906 221.070312 C 220.351562 218.894531 221.90625 216.667969 222.371094 216.046875 C 223.71875 214.546875 226.617188 209.832031 226.617188 209.15625 C 226.617188 208.847656 227.1875 207.964844 227.863281 207.136719 C 228.585938 206.308594 230.191406 203.460938 231.539062 200.871094 C 234.542969 194.859375 235.527344 189.886719 234.957031 183.621094 C 234.542969 179.164062 234.027344 177.664062 232.628906 176.417969 C 232.160156 176.054688 231.800781 175.226562 231.800781 174.554688 C 231.800781 172.898438 229.519531 169.324219 228.226562 168.90625 C 227.65625 168.753906 226.671875 167.820312 226.101562 166.835938 C 225.480469 165.851562 224.289062 164.609375 223.457031 164.140625 C 222.628906 163.625 221.957031 163.054688 221.957031 162.847656 C 221.957031 162.640625 221.699219 162.433594 221.335938 162.433594 C 221.023438 162.433594 219.78125 162.019531 218.640625 161.449219 C 215.324219 159.945312 209.9375 158.808594 205.898438 158.808594 C 201.859375 158.808594 200.976562 157.925781 203.980469 156.839844 C 206.054688 156.0625 207.761719 156.0625 210.664062 156.734375 C 211.90625 156.992188 214.238281 157.511719 215.894531 157.824219 C 219.882812 158.652344 225.375 161.550781 229.15625 164.765625 C 235.734375 170.410156 239.050781 178.023438 239.050781 187.710938 C 239.050781 196.414062 236.355469 202.941406 226.359375 218.121094 C 215.742188 234.28125 212.839844 238.789062 210.714844 242.464844 C 206.3125 250.082031 205.121094 254.121094 206.625 256.453125 L 207.453125 257.746094 L 205.378906 257.746094 C 203.617188 257.746094 203.203125 257.539062 202.53125 256.191406 Z M 202.53125 256.191406 " fill-opacity="1" fill-rule="nonzero"/><path fill="#dccfc2" d="M 163.421875 233.816406 C 163.421875 233.503906 163.785156 231.691406 164.25 229.828125 C 165.183594 226.046875 166.527344 223.039062 167.773438 222.054688 C 168.496094 221.433594 168.601562 221.589844 168.601562 223.246094 C 168.601562 224.542969 168.394531 225.113281 167.824219 225.113281 C 167.304688 225.113281 167.046875 225.628906 167.046875 226.667969 C 167.046875 227.546875 166.839844 228.21875 166.582031 228.21875 C 166.375 228.21875 166.011719 229.621094 165.804688 231.328125 C 165.492188 233.96875 165.285156 234.4375 164.457031 234.4375 C 163.886719 234.4375 163.421875 234.179688 163.421875 233.816406 Z M 163.421875 233.816406 " fill-opacity="1" fill-rule="nonzero"/><path fill="#dccfc2" d="M 169.015625 219.570312 C 169.585938 218.066406 170.878906 216.304688 171.347656 216.304688 C 171.605469 216.304688 171.710938 217.1875 171.605469 218.273438 C 171.449219 219.933594 171.242188 220.191406 170.050781 220.347656 C 168.859375 220.503906 168.652344 220.347656 169.015625 219.570312 Z M 169.015625 219.570312 " fill-opacity="1" fill-rule="nonzero"/><path fill="#dccfc2" d="M 258.21875 216.410156 C 258.21875 215.789062 260.03125 214.855469 262.050781 214.492188 C 263.707031 214.183594 263.914062 214.234375 263.914062 215.167969 C 263.914062 215.789062 263.449219 216.304688 262.777344 216.511719 C 261.117188 216.929688 258.21875 216.875 258.21875 216.410156 Z M 258.21875 216.410156 " fill-opacity="1" fill-rule="nonzero"/><path fill="#dccfc2" d="M 174.300781 210.816406 C 174.300781 210.195312 176.578125 206.980469 177.042969 206.980469 C 177.304688 206.980469 177.40625 207.863281 177.304688 208.949219 C 177.148438 210.609375 176.941406 210.867188 175.75 211.023438 C 174.921875 211.125 174.300781 211.023438 174.300781 210.816406 Z M 174.300781 210.816406 " fill-opacity="1" fill-rule="nonzero"/><path fill="#dccfc2" d="M 90.226562 206.878906 C 92.039062 203.667969 92.972656 203.148438 92.972656 205.375 C 92.972656 208.019531 91.988281 209.570312 90.226562 209.570312 L 88.722656 209.570312 Z M 90.226562 206.878906 " fill-opacity="1" fill-rule="nonzero"/><path fill="#dccfc2" d="M 92.453125 202.890625 C 92.453125 202.578125 93.023438 201.699219 93.75 200.921875 L 94.992188 199.472656 L 95.042969 201.4375 C 95.042969 203.148438 94.886719 203.355469 93.75 203.355469 C 93.023438 203.355469 92.453125 203.148438 92.453125 202.890625 Z M 92.453125 202.890625 " fill-opacity="1" fill-rule="nonzero"/><path fill="#dccfc2" d="M 182.949219 196.519531 C 185.695312 191.855469 186.214844 191.492188 186.214844 193.980469 C 186.214844 196.828125 185.386719 198.175781 183.570312 198.175781 L 181.964844 198.175781 Z M 182.949219 196.519531 " fill-opacity="1" fill-rule="nonzero"/><path fill="#dccfc2" d="M 97.324219 194.707031 C 97.839844 193.304688 99.914062 190.40625 100.378906 190.40625 C 101 190.40625 100.742188 193.722656 100.015625 194.707031 C 99.652344 195.171875 98.824219 195.585938 98.152344 195.585938 C 97.269531 195.585938 97.0625 195.378906 97.324219 194.707031 Z M 97.324219 194.707031 " fill-opacity="1" fill-rule="nonzero"/><path fill="#dccfc2" d="M 187.558594 188.644531 C 188.285156 187.402344 189.167969 186.054688 189.582031 185.742188 C 190.253906 185.171875 190.359375 185.328125 190.359375 186.675781 C 190.359375 189.523438 189.527344 190.921875 187.820312 190.921875 L 186.265625 190.921875 Z M 187.558594 188.644531 " fill-opacity="1" fill-rule="nonzero"/><path fill="#dccfc2" d="M 193.984375 175.28125 C 193.984375 173.726562 194.65625 172.273438 195.332031 172.273438 C 195.796875 172.273438 196.054688 172.898438 196.054688 174.089844 C 196.054688 175.539062 195.847656 175.902344 195.019531 175.902344 C 194.449219 175.902344 193.984375 175.589844 193.984375 175.28125 Z M 193.984375 175.28125 " fill-opacity="1" fill-rule="nonzero"/><path fill="#dccfc2" d="M 110.066406 173.519531 C 110.066406 172.84375 112.242188 169.683594 112.707031 169.683594 C 113.019531 169.683594 113.171875 170.566406 113.070312 171.652344 C 112.914062 173.3125 112.707031 173.570312 111.515625 173.726562 C 110.6875 173.828125 110.066406 173.726562 110.066406 173.519531 Z M 110.066406 173.519531 " fill-opacity="1" fill-rule="nonzero"/><path fill="#dccfc2" d="M 195.539062 159.117188 C 195.539062 158.652344 196.523438 158.183594 198.128906 157.824219 C 201.597656 157.097656 201.753906 157.097656 201.753906 158.238281 C 201.753906 158.960938 201.234375 159.273438 199.835938 159.53125 C 196.730469 160 195.539062 159.894531 195.539062 159.117188 Z M 195.539062 159.117188 " fill-opacity="1" fill-rule="nonzero"/><path fill="#dccfc2" d="M 118.871094 159.015625 C 118.871094 158.339844 121.152344 154.664062 121.566406 154.664062 C 122.03125 154.664062 122.136719 157.304688 121.667969 158.496094 C 121.359375 159.273438 118.871094 159.738281 118.871094 159.015625 Z M 118.871094 159.015625 " fill-opacity="1" fill-rule="nonzero"/><path fill="#dccfc2" d="M 124.050781 150.3125 C 124.671875 149.328125 125.503906 148.238281 125.917969 147.875 C 126.589844 147.308594 126.695312 147.515625 126.539062 149.535156 C 126.382812 151.710938 126.28125 151.8125 124.671875 151.96875 L 123.015625 152.125 Z M 124.050781 150.3125 " fill-opacity="1" fill-rule="nonzero"/><path fill="#dccfc2" d="M 132.238281 138.34375 C 133.84375 135.652344 134.414062 135.445312 134.414062 137.515625 C 134.414062 139.949219 133.894531 140.675781 132.289062 140.675781 L 130.785156 140.675781 Z M 132.238281 138.34375 " fill-opacity="1" fill-rule="nonzero"/><path fill="#dccfc2" d="M 138.609375 130.472656 C 139.851562 128.8125 147.570312 120.992188 147.984375 120.992188 C 148.242188 120.992188 148.398438 121.71875 148.398438 122.597656 C 148.398438 124.203125 147.671875 125.085938 143.839844 128.398438 C 142.960938 129.175781 141.976562 129.796875 141.664062 129.796875 C 141.40625 129.796875 141.144531 130.160156 141.144531 130.574219 C 141.144531 131.09375 140.628906 131.351562 139.539062 131.351562 C 138.089844 131.351562 137.988281 131.25 138.609375 130.472656 Z M 138.609375 130.472656 " fill-opacity="1" fill-rule="nonzero"/><path fill="#dccfc2" d="M 154.097656 116.070312 C 154.460938 115.65625 156.53125 114.207031 158.707031 112.859375 C 160.882812 111.511719 163.421875 109.855469 164.40625 109.234375 C 166.632812 107.730469 167.046875 107.730469 167.046875 109.234375 C 167.046875 110.0625 166.582031 110.683594 165.648438 111.203125 C 164.820312 111.617188 163.886719 112.238281 163.523438 112.601562 C 163.160156 112.910156 162.28125 113.222656 161.554688 113.222656 C 160.777344 113.222656 160.3125 113.53125 160.3125 114 C 160.3125 114.414062 159.949219 114.777344 159.535156 114.777344 C 159.121094 114.777344 158.757812 115.035156 158.757812 115.292969 C 158.757812 115.605469 158.394531 115.8125 157.980469 115.8125 C 157.566406 115.8125 157.203125 116.070312 157.203125 116.328125 C 157.203125 116.640625 156.375 116.847656 155.339844 116.847656 C 153.734375 116.847656 153.527344 116.742188 154.097656 116.070312 Z M 154.097656 116.070312 " fill-opacity="1" fill-rule="nonzero"/><path fill="#dccfc2" d="M 177.511719 104.3125 C 177.769531 103.585938 181.707031 102.085938 184.710938 101.566406 C 186.472656 101.253906 186.730469 101.359375 186.730469 102.238281 C 186.730469 103.328125 185.4375 103.898438 183.003906 103.898438 C 182.171875 103.898438 181.550781 104.15625 181.550781 104.414062 C 181.550781 104.726562 180.621094 104.933594 179.429688 104.933594 C 177.976562 104.933594 177.40625 104.726562 177.511719 104.3125 Z M 177.511719 104.3125 " fill-opacity="1" fill-rule="nonzero"/><path fill="#dccfc2" d="M 187.25 101.824219 C 187.25 100.894531 189.167969 100.375 195.847656 99.546875 C 199.527344 99.078125 202.738281 98.71875 202.945312 98.71875 C 203.257812 98.71875 203.515625 100.789062 203.203125 100.789062 C 203.101562 100.789062 200.042969 101.152344 196.316406 101.566406 C 188.285156 102.445312 187.25 102.5 187.25 101.824219 Z M 187.25 101.824219 " fill-opacity="1" fill-rule="nonzero"/><path fill="#dccfc2" d="M 187.25 266.347656 C 186.265625 265.933594 184.816406 265.570312 184.039062 265.570312 C 183.210938 265.519531 182.171875 265.101562 181.65625 264.636719 C 181.1875 264.117188 180.203125 263.445312 179.480469 263.132812 C 177.40625 262.203125 173.109375 258.730469 170.878906 256.191406 C 165.960938 250.652344 164.09375 246.039062 163.578125 238.582031 C 163.214844 233.246094 164.613281 226.820312 166.996094 223.09375 C 168.445312 220.761719 172.902344 213.300781 177.40625 205.53125 C 180.464844 200.246094 182.640625 196.933594 183.210938 196.570312 C 183.46875 196.414062 184.296875 195.015625 184.96875 193.460938 C 185.695312 191.90625 186.628906 190.300781 186.992188 189.886719 C 188.234375 188.488281 190.925781 183.152344 192.792969 178.285156 C 194.398438 174.191406 194.605469 173.15625 194.347656 170.460938 C 194.085938 167.769531 193.828125 167.148438 192.429688 166.007812 C 191.289062 165.023438 189.890625 164.503906 187.921875 164.246094 C 185.230469 163.933594 185.125 163.832031 185.953125 162.949219 C 187.144531 161.65625 192.171875 159.480469 196.9375 158.238281 C 204.1875 156.371094 214.132812 157.097656 220.195312 159.894531 C 221.335938 160.464844 222.683594 160.878906 223.199219 160.878906 C 223.667969 160.878906 223.976562 161.085938 223.820312 161.292969 C 223.667969 161.550781 224.234375 162.121094 225.066406 162.589844 C 225.894531 163.105469 227.035156 164.296875 227.65625 165.28125 C 228.226562 166.265625 229.207031 167.199219 229.777344 167.355469 C 231.074219 167.769531 233.351562 171.34375 233.351562 172.949219 C 233.351562 173.621094 233.820312 174.605469 234.390625 175.125 C 235.789062 176.417969 236.359375 178.492188 236.71875 184.1875 C 237.132812 191.183594 236.097656 196.3125 233.09375 202.421875 C 231.746094 205.011719 230.140625 207.863281 229.417969 208.691406 C 228.742188 209.519531 228.171875 210.402344 228.171875 210.710938 C 228.171875 211.386719 225.273438 216.097656 223.925781 217.601562 C 223.457031 218.222656 221.90625 220.449219 220.558594 222.625 C 218.226562 226.355469 216.257812 229.359375 210.769531 237.542969 C 209.523438 239.410156 208.488281 241.171875 208.488281 241.480469 C 208.488281 241.792969 208.074219 242.621094 207.503906 243.292969 C 206.984375 243.96875 206.417969 245.109375 206.210938 245.832031 C 206 246.558594 205.226562 248.371094 204.449219 249.875 C 203.152344 252.515625 203.152344 252.617188 203.980469 254.378906 C 204.449219 255.363281 205.070312 256.191406 205.378906 256.191406 C 205.691406 256.191406 206.625 256.710938 207.453125 257.332031 L 208.953125 258.421875 L 211.90625 257.074219 C 213.824219 256.246094 216.15625 254.484375 218.332031 252.359375 C 221.800781 248.890625 223.304688 248.058594 222.578125 249.925781 C 222.007812 251.425781 213.71875 260.335938 212.890625 260.335938 C 212.476562 260.335938 211.441406 261.0625 210.558594 261.890625 C 209.679688 262.773438 208.695312 263.445312 208.382812 263.445312 C 208.074219 263.445312 207.402344 263.757812 206.984375 264.171875 C 204.601562 266.292969 190.824219 267.796875 187.25 266.347656 Z M 187.25 266.347656 " fill-opacity="1" fill-rule="nonzero"/><path fill="#dccfc2" d="M 99.238281 265.726562 C 97.738281 265.308594 95.714844 264.378906 94.785156 263.652344 C 93.902344 262.980469 92.917969 262.410156 92.609375 262.410156 C 92.351562 262.410156 91.003906 261.375 89.550781 260.078125 C 88.152344 258.835938 86.859375 257.800781 86.703125 257.746094 C 85.824219 257.695312 83.335938 253.5 81.472656 249.042969 C 79.867188 245.054688 79.296875 242.933594 78.882812 238.789062 C 78.414062 234.074219 78.46875 233.140625 79.503906 229.464844 C 80.640625 225.269531 80.851562 224.699219 83.648438 218.894531 C 86.238281 213.5625 88.257812 209.933594 89.398438 208.585938 C 90.019531 207.914062 90.847656 206.515625 91.261719 205.480469 C 91.988281 203.71875 94.679688 199.160156 104.730469 182.480469 C 107.113281 178.542969 109.03125 175.175781 109.03125 175.019531 C 109.03125 174.8125 109.597656 173.933594 110.324219 173 C 111.050781 172.066406 111.621094 171.1875 111.621094 171.082031 C 111.621094 170.929688 112.605469 169.167969 113.847656 167.148438 C 115.039062 165.179688 117.058594 161.8125 118.300781 159.738281 C 119.546875 157.667969 121.410156 154.714844 122.445312 153.160156 C 123.480469 151.65625 124.878906 149.429688 125.554688 148.238281 C 126.226562 147.097656 127.832031 144.714844 129.078125 143.007812 C 130.320312 141.296875 131.769531 139.226562 132.238281 138.398438 C 133.53125 136.167969 139.953125 128.761719 142.128906 126.949219 C 143.167969 126.121094 144.617188 124.722656 145.445312 123.839844 C 149.226562 119.800781 150.988281 118.195312 154.355469 115.863281 C 163.421875 109.648438 171.242188 105.503906 176.835938 103.949219 C 178.804688 103.378906 180.878906 102.707031 181.449219 102.394531 C 182.070312 102.085938 182.742188 101.878906 182.949219 101.929688 C 183.15625 101.980469 185.125 101.667969 187.25 101.203125 C 194.5 99.597656 205.847656 98.511719 206.675781 99.339844 C 206.882812 99.546875 206.625 100.375 206.105469 101.203125 C 200.5625 109.800781 198.644531 112.652344 196.988281 114.777344 C 195.953125 116.121094 194.65625 118.140625 194.085938 119.28125 C 193.519531 120.371094 192.636719 121.613281 192.171875 122.027344 C 191.703125 122.441406 190.667969 124.203125 189.839844 125.964844 C 189.0625 127.726562 187.921875 129.433594 187.351562 129.746094 C 186.785156 130.058594 186.109375 130.832031 185.953125 131.457031 C 185.488281 133.007812 181.863281 139.226562 179.480469 142.488281 C 178.445312 143.941406 176.835938 146.839844 175.851562 148.964844 C 174.871094 151.089844 173.417969 153.730469 172.640625 154.816406 C 171.8125 155.855469 170.777344 157.5625 170.414062 158.496094 C 170 159.480469 169.378906 160.464844 169.066406 160.671875 C 168.757812 160.828125 167.929688 162.226562 167.304688 163.675781 C 166.632812 165.179688 165.753906 166.679688 165.285156 167.042969 C 164.871094 167.40625 163.992188 169.011719 163.421875 170.617188 C 162.800781 172.273438 161.195312 175.589844 159.742188 178.023438 C 157.257812 182.375 156.53125 185.277344 157.773438 186.003906 C 158.035156 186.210938 158.707031 186.003906 159.171875 185.585938 C 160.105469 184.757812 161.503906 184.292969 161.816406 184.707031 C 162.230469 185.277344 161.246094 187.246094 160.363281 187.554688 C 159.847656 187.710938 158.65625 189.214844 157.671875 190.921875 C 156.6875 192.582031 155.496094 194.136719 155.03125 194.394531 C 154.5625 194.601562 152.59375 197.140625 150.730469 199.988281 C 148.8125 202.835938 146.585938 205.894531 145.808594 206.722656 C 145.03125 207.601562 144.097656 208.847656 143.738281 209.570312 C 143.375 210.296875 141.5625 213.199219 139.695312 216.046875 C 137.832031 218.894531 135.757812 222.054688 135.085938 223.09375 C 134.414062 224.078125 133.894531 225.113281 133.894531 225.320312 C 133.894531 225.578125 132.804688 227.390625 131.460938 229.410156 C 127.625 235.007812 127.316406 235.472656 125.347656 239.253906 C 124.3125 241.222656 122.757812 243.917969 121.824219 245.261719 C 120.890625 246.609375 119.597656 248.734375 118.871094 249.925781 C 118.148438 251.117188 116.59375 253.601562 115.347656 255.46875 C 114.15625 257.332031 112.65625 259.871094 112.085938 261.113281 C 111.464844 262.410156 110.167969 264.117188 109.238281 265 C 107.683594 266.347656 107.0625 266.554688 104.730469 266.5 C 103.226562 266.5 100.792969 266.140625 99.238281 265.726562 Z M 99.238281 265.726562 " fill-opacity="1" fill-rule="nonzero"/><path fill="#dccfc2" d="M 261.324219 266.085938 C 260.03125 265.878906 258.164062 265.308594 257.179688 264.792969 C 254.796875 263.550781 248.480469 258.367188 247.496094 256.867188 C 247.082031 256.191406 246.511719 255.777344 246.304688 255.933594 C 245.890625 256.191406 244.75 253.964844 244.75 252.828125 C 244.75 252.410156 244.59375 252.050781 244.335938 252.050781 C 243.867188 252.050781 242.675781 247.128906 242.675781 245.054688 C 242.675781 244.226562 242.882812 242.878906 243.144531 242 C 243.402344 241.117188 244.128906 238.789062 244.699219 236.769531 C 246.511719 230.757812 246.097656 228.945312 242.832031 229.152344 C 241.332031 229.257812 240.347656 229.773438 238.6875 231.433594 C 237.445312 232.625 236.304688 233.453125 236.148438 233.246094 C 235.632812 232.777344 238.429688 229.257812 239.308594 229.257812 C 239.722656 229.257812 240.398438 228.582031 240.8125 227.753906 C 241.277344 226.925781 242.625 225.476562 243.816406 224.542969 C 245.058594 223.609375 246.148438 222.679688 246.304688 222.523438 C 246.925781 221.902344 252.46875 218.378906 254.332031 217.445312 C 257.597656 215.890625 262.828125 214.335938 266.351562 213.976562 C 270.027344 213.5625 276.398438 214.753906 279.507812 216.359375 C 280.542969 216.929688 281.734375 217.34375 282.203125 217.34375 C 282.617188 217.34375 283.339844 217.914062 283.808594 218.636719 C 284.273438 219.3125 285.570312 220.761719 286.65625 221.847656 C 289.351562 224.4375 292.148438 230.1875 292.871094 234.695312 C 293.441406 237.753906 293.390625 239.046875 292.613281 243.242188 C 292.042969 246.195312 291.320312 248.578125 290.75 249.25 C 290.230469 249.820312 289.816406 250.546875 289.816406 250.804688 C 289.816406 252.203125 286.242188 256.453125 282.410156 259.714844 C 277.589844 263.757812 274.015625 265.570312 270.648438 265.726562 C 269.355469 265.828125 267.28125 265.984375 265.988281 266.140625 C 264.691406 266.292969 262.621094 266.292969 261.324219 266.085938 Z M 261.324219 266.085938 " fill-opacity="1" fill-rule="nonzero"/><path fill="#dccfc2" d="M 225.066406 245.730469 C 225.066406 244.746094 228.328125 241.429688 228.585938 242.15625 C 228.847656 242.984375 227.394531 245.160156 226.101562 245.832031 C 225.324219 246.246094 225.066406 246.246094 225.066406 245.730469 Z M 225.066406 245.730469 " fill-opacity="1" fill-rule="nonzero"/><path fill="#dccfc2" d="M 230.761719 239.511719 C 230.816406 238.632812 232.78125 236.042969 232.835938 236.871094 C 232.835938 237.960938 231.851562 240.136719 231.28125 240.136719 C 231.023438 240.136719 230.761719 239.824219 230.761719 239.511719 Z M 230.761719 239.511719 " fill-opacity="1" fill-rule="nonzero"/><path fill="#dccfc2" d="M 163.9375 181.910156 C 163.9375 181.496094 164.09375 180.824219 164.25 180.40625 C 164.664062 179.214844 169.535156 175.332031 169.84375 175.847656 C 170.207031 176.367188 166.738281 180.71875 165.027344 181.910156 C 164.09375 182.582031 163.9375 182.582031 163.9375 181.910156 Z M 163.9375 181.910156 " fill-opacity="1" fill-rule="nonzero"/><path fill="#dccfc2" d="M 171.191406 174.035156 C 171.191406 173.570312 175.4375 169.476562 177.097656 168.390625 C 182.226562 164.917969 184.140625 163.832031 184.140625 164.347656 C 184.140625 165.230469 183.261719 166.058594 181.550781 166.785156 C 180.566406 167.25 178.132812 169.117188 176.113281 170.980469 C 172.902344 173.933594 171.191406 175.019531 171.191406 174.035156 Z M 171.191406 174.035156 " fill-opacity="1" fill-rule="nonzero"/></svg>